HIERARCHY
ROOT root
{
	OFFSET 0.000000 0.000000 0.000000
	CHANNELS 6 Xposition Yposition Zposition Zrotation Yrotation Xrotation
	JOINT lhip
	{
		OFFSET 0.058581 -0.082280 -0.017664
		CHANNELS 3 Zrotation Yrotation Xrotation
		JOINT lknee
		{
			OFFSET 0.043451 -0.386469 0.008037
			CHANNELS 3 Zrotation Yrotation Xrotation
			JOINT lankle
			{
				OFFSET -0.014790 -0.426874 -0.037428
				CHANNELS 3 Zrotation Yrotation Xrotation
				JOINT ltoe
				{
					OFFSET 0.041054 -0.060286 0.122042
					CHANNELS 3 Zrotation Yrotation Xrotation
					End Site
					{
						OFFSET 0.000000 0.000000 0.000000
					}
				}
			}
		}
	}
	JOINT rhip
	{
		OFFSET -0.060310 -0.090513 -0.013543
		CHANNELS 3 Zrotation Yrotation Xrotation
		JOINT rknee
		{
			OFFSET -0.043257 -0.383688 -0.004843
			CHANNELS 3 Zrotation Yrotation Xrotation
			JOINT rankle
			{
				OFFSET 0.019056 -0.420046 -0.034562
				CHANNELS 3 Zrotation Yrotation Xrotation
				JOINT rtoe
				{
					OFFSET -0.034840 -0.062106 0.130323
					CHANNELS 3 Zrotation Yrotation Xrotation
					End Site
					{
						OFFSET 0.000000 0.000000 0.000000
					}
				}
			}
		}
	}
	JOINT lowerback
	{
		OFFSET 0.004439 0.124404 -0.038385
		CHANNELS 3 Zrotation Yrotation Xrotation
		JOINT upperback
		{
			OFFSET 0.004488 0.137956 0.026820
			CHANNELS 3 Zrotation Yrotation Xrotation
			JOINT chest
			{
				OFFSET -0.002265 0.056032 0.002855
				CHANNELS 3 Zrotation Yrotation Xrotation
				JOINT lowerneck
				{
					OFFSET -0.013390 0.211636 -0.033468
					CHANNELS 3 Zrotation Yrotation Xrotation
					JOINT upperneck
					{
						OFFSET 0.010113 0.088937 0.050410
						CHANNELS 3 Zrotation Yrotation Xrotation
						End Site
						{
							OFFSET 0.000000 0.000000 0.000000
						}
					}
				}
				JOINT lclavicle
				{
					OFFSET 0.071702 0.114000 -0.018898
					CHANNELS 3 Zrotation Yrotation Xrotation
					JOINT lshoulder
					{
						OFFSET 0.122921 0.045205 -0.019046
						CHANNELS 3 Zrotation Yrotation Xrotation
						JOINT lelbow
						{
							OFFSET 0.255332 -0.015649 -0.022946
							CHANNELS 3 Zrotation Yrotation Xrotation
							JOINT lwrist
							{
								OFFSET 0.265709 0.012698 -0.007375
								CHANNELS 3 Zrotation Yrotation Xrotation
								End Site
								{
									OFFSET 0.000000 0.000000 0.000000
								}
							}
						}
					}
				}
				JOINT rclavicle
				{
					OFFSET -0.082954 0.112472 -0.023707
					CHANNELS 3 Zrotation Yrotation Xrotation
					JOINT rshoulder
					{
						OFFSET -0.113228 0.046853 -0.008472
						CHANNELS 3 Zrotation Yrotation Xrotation
						JOINT relbow
						{
							OFFSET -0.260127 -0.014369 -0.031269
							CHANNELS 3 Zrotation Yrotation Xrotation
							JOINT rwrist
							{
								OFFSET -0.269108 0.006794 -0.006027
								CHANNELS 3 Zrotation Yrotation Xrotation
								End Site
								{
									OFFSET 0.000000 0.000000 0.000000
								}
							}
						}
					}
				}
			}
		}
	}
}
MOTION
Frames: 11
Frame Time: 0.033333
2.203274 0.894973 0.968676 -159.666497 10.665234 93.009730 -4.334534 0.097709 5.074971 -6.336248 -3.943272 32.034004 3.783912 11.250213 -10.630393 0.000000 -0.000000 0.000000 -7.047529 0.612812 -26.454219 -0.784066 -6.691260 23.889876 8.233068 -5.527398 -3.326367 0.000000 -0.000000 0.000000 1.041270 -4.163682 11.865330 1.992970 1.836138 2.073985 1.198288 0.768029 4.146152 -1.347146 15.338723 -0.976807 -4.554490 17.732482 -10.766626 -21.432473 9.882968 -1.451993 -57.579415 -6.812595 18.607746 -98.605762 -73.188186 111.169239 14.165982 -11.804666 -16.257374 20.429144 -6.466957 2.906780 52.665440 -0.598641 22.575086 28.511909 83.647543 38.710217 -5.112627 11.679666 -9.386473 
2.183969 0.941935 0.958492 -153.936193 10.692402 93.924180 -3.159168 2.542910 2.736011 -3.605630 1.841588 41.989356 4.377086 11.252070 -9.947878 0.000000 -0.000000 0.000000 -8.027516 -1.436897 -25.526296 -0.736989 -5.088010 23.066800 9.521720 -3.624934 -0.726700 0.000000 -0.000000 0.000000 3.068464 -4.704121 11.097854 1.828299 0.396365 2.358558 -0.084571 0.471713 3.755695 -1.622013 12.717736 -1.872370 -3.681483 17.616120 -10.804003 -20.417876 9.886514 -1.543752 -56.479417 -7.484645 18.636729 -104.038766 -70.810965 117.341085 11.955206 -12.263568 -19.340272 19.469323 -7.288986 2.703255 51.714942 -1.468498 22.310490 47.190551 84.779698 57.629115 -2.820004 11.386107 -11.103262 
2.168227 0.988435 0.938621 -146.594911 10.855415 93.924458 -2.061667 4.018881 -0.291809 1.102351 5.062323 55.076324 2.942553 17.160153 -14.737633 0.000000 -0.000000 0.000000 -9.583405 -2.142875 -22.431649 -0.366339 -5.604867 28.271770 8.725220 -4.543233 -7.321290 0.000000 -0.000000 0.000000 4.040263 -5.491837 12.203969 2.249889 -0.933066 1.595373 -0.177971 0.320508 4.454953 -2.041561 10.735501 -3.676035 -3.379566 16.755300 -10.670974 -19.724716 9.323435 -1.791290 -57.922987 -7.337489 17.733332 -106.898473 -69.673985 118.680981 14.777893 -11.643794 -20.310220 18.721986 -6.947923 1.508946 49.310714 -1.792428 21.247317 76.289154 84.584596 86.932737 -3.406457 11.187253 -9.919166 
2.150645 1.042343 0.902275 -139.988939 10.981079 94.193140 0.371363 4.117590 -7.076958 2.057038 8.800219 73.328699 3.793219 15.614282 -18.387957 0.000000 -0.000000 0.000000 -11.525076 -4.591523 -19.768520 3.177819 -4.138425 37.277240 7.488024 -2.469982 -22.380816 0.000000 -0.000000 0.000000 4.704553 -3.799372 13.342843 3.155298 -1.383968 1.259958 -0.127914 0.568692 4.979395 -1.606629 9.096541 -6.285210 -3.641931 12.939668 -10.262398 -20.473862 7.858858 -2.537617 -55.779912 -7.004022 16.781693 -108.221674 -68.692216 119.108989 19.665684 -10.610941 -18.760952 19.043347 -4.665429 0.492130 44.570586 -1.076910 20.110744 103.788471 83.930382 113.611214 -7.783615 11.585773 -9.501778 
2.142152 1.069447 0.882977 -137.651033 11.046645 94.576005 1.357624 4.407193 -13.648107 2.117801 10.996431 83.910757 1.574094 15.514674 -23.465519 0.000000 -0.000000 0.000000 -12.041131 -6.059813 -18.764689 4.396220 -4.680335 41.054707 6.547311 -2.775383 -28.353388 0.000000 -0.000000 0.000000 5.212984 -2.302045 14.675192 3.294403 -1.145001 1.468317 -0.541623 1.271173 4.661794 -0.997561 8.220965 -8.670612 -3.732665 10.517966 -9.764138 -21.800065 7.714065 -3.539329 -53.911243 -5.898073 15.710785 -104.508815 -69.001868 116.199815 22.199968 -12.500342 -13.261789 20.148226 -2.026410 0.287087 42.049140 0.530667 19.292284 104.951803 84.062221 115.333054 -7.035169 12.173520 -8.810849 
2.119887 1.101509 0.867320 -135.548678 10.393538 94.718999 1.950100 3.196372 -21.769672 3.857540 16.393723 91.758435 1.216162 14.232931 -26.562361 0.000000 -0.000000 0.000000 -13.987974 -6.786385 -15.383615 6.089271 -5.263141 42.700305 6.212563 -3.024980 -31.755255 0.000000 -0.000000 0.000000 5.255682 -0.001959 16.481537 2.334957 -0.630594 2.344368 0.315216 2.067487 2.294307 -1.976587 3.064660 -7.221802 -1.844348 11.476425 -12.623476 -21.876454 7.324273 -2.930420 -54.838721 -0.519351 11.639322 -97.137602 -70.639549 108.298889 26.658810 -13.426819 -3.395994 18.599485 3.432504 2.763014 41.770040 2.499486 15.393550 94.734937 83.729598 103.183810 -9.602594 12.615153 -6.585157 
2.089367 1.133929 0.865529 -133.725930 9.917650 95.556643 3.386008 3.760904 -31.324115 5.105831 20.614956 93.191407 4.262846 14.120354 -24.200813 0.000000 -0.000000 0.000000 -13.848384 -8.427772 -10.035600 6.942566 -2.114498 38.720650 5.795845 -5.869230 -32.867776 0.000000 -0.000000 0.000000 4.650703 2.130049 17.073157 1.131587 -0.193715 2.584447 -0.263238 3.090813 4.299403 0.804659 -0.587783 -13.051562 0.411074 12.443126 -13.084986 -20.971692 11.466449 -6.015032 -51.996098 3.588383 10.212975 -93.930539 -67.992115 110.064190 26.316400 -7.605688 -0.313947 20.840787 4.961584 -0.546997 40.359595 6.579004 15.599252 90.445216 82.280529 98.015944 -9.901695 13.037489 -4.059298 
2.049415 1.160418 0.876008 -130.866122 8.897146 97.980270 5.022508 2.222361 -41.979572 5.809972 26.032649 87.750540 2.154570 16.053586 -27.748613 0.000000 -0.000000 0.000000 -14.494351 -9.678875 -3.394592 6.654764 -0.130918 29.484378 7.423873 -6.198928 -29.131386 0.000000 -0.000000 0.000000 3.987582 5.129653 16.952720 0.859867 -1.027376 -0.048515 0.373930 3.088260 5.455922 0.806316 -3.273374 -13.045005 2.235092 12.176032 -12.966817 -19.223630 14.269067 -4.983150 -50.027755 10.489926 8.673702 -99.153939 -66.114504 110.690643 29.924287 -4.593060 -2.101791 18.601433 5.106199 -1.353731 43.874207 9.132339 17.205208 102.107495 82.797987 107.847024 -10.058475 11.076812 0.769678 
1.994661 1.188503 0.895949 -130.993033 7.453192 99.323186 5.669055 2.652997 -46.343726 3.336686 30.676691 73.901363 4.907072 14.040714 -25.457729 0.000000 -0.000000 0.000000 -16.823849 -10.427494 3.787564 5.027381 2.109462 19.004299 10.994096 -5.314140 -16.321582 0.000000 -0.000000 0.000000 1.675443 9.409546 15.604762 0.476826 -0.799183 0.185464 0.871770 3.386410 5.142005 2.050751 -5.323152 -12.572290 3.985693 10.993954 -13.967523 -17.046714 17.635514 -4.316285 -45.338829 14.743511 9.135113 -105.094714 -62.358682 114.106149 29.326474 -6.252085 -4.842326 18.832998 4.479980 -1.405734 45.803028 9.550841 19.451212 120.714052 83.214459 124.876497 -11.342621 12.823890 1.291330 
1.915241 1.222455 0.926233 -130.816666 7.312796 99.444672 5.759827 3.097901 -45.333214 -2.508795 28.546275 51.420993 5.323865 14.474023 -23.233356 0.000000 -0.000000 0.000000 -20.431320 -12.942305 11.759848 4.044272 0.417876 9.262046 16.504511 -4.244026 10.564378 0.000000 -0.000000 0.000000 -0.340449 13.455483 15.218389 0.436218 -0.650992 -0.265990 2.587281 3.633239 4.570662 1.086571 -8.773378 -9.838380 6.256098 11.924326 -15.532189 -13.573159 18.145449 -0.459759 -43.647264 20.579026 8.196482 -110.070085 -59.646285 119.809722 31.440340 -8.744241 -4.403027 18.573310 6.046152 0.119898 46.842955 6.578570 19.852894 142.344561 81.372649 145.526909 -10.360506 13.643297 3.616743 
1.848517 1.250280 0.945246 -129.278662 7.959202 99.469854 5.264965 2.180270 -42.458747 -4.004824 24.376949 39.124567 6.138036 15.933866 -20.912238 0.000000 -0.000000 0.000000 -18.964216 -12.863349 14.565825 1.612435 0.436943 8.433398 13.123757 -9.549836 20.337489 0.000000 -0.000000 0.000000 -1.389447 14.436903 14.303681 0.727700 -0.198803 -0.264130 3.903818 3.100871 3.928254 0.949755 -12.016054 -7.798290 7.757092 13.101087 -16.879206 -11.875496 18.392532 1.883644 -43.853226 23.494052 6.997916 -112.078103 -57.964501 120.253886 33.571120 -8.272308 -4.664252 18.217519 7.384727 1.044349 49.289092 4.453695 21.755752 148.524613 80.836302 147.734760 -15.190896 14.131886 8.159383 
